<?xml version="1.0" standalone="no"?>
<!DOCTYPE svg PUBLIC "-//W3C//DTD SVG 1.1//EN" "http://www.w3.org/Graphics/SVG/1.1/DTD/svg11.dtd" >
<svg xmlns="http://www.w3.org/2000/svg">
<metadata>
This is a custom SVG webfont generated by Font Squirrel.
Copyright   :  1993 1994 2001 2002 Adobe Systems Incorporated All rights reserved
Designer    : Herb Lubalin Tom Carnase Ed Benguiat Adobe Type Staff
Foundry URL : httpwwwadobecomtype
</metadata>
<defs>
<font id="ITCAvantGardeGothicStdBdCn" horiz-adv-x="1024" >
<font-face units-per-em="2048" ascent="1516" descent="-532" />
<missing-glyph horiz-adv-x="569" />
<glyph unicode=" "  horiz-adv-x="569" />
<glyph unicode="&#x09;" horiz-adv-x="569" />
<glyph unicode="&#xa0;" horiz-adv-x="569" />
<glyph unicode="!" horiz-adv-x="569" d="M133 0v311h303v-311h-303zM133 422v1094h303v-1094h-303z" />
<glyph unicode="&#x22;" horiz-adv-x="681" d="M20 909v607h254v-607h-254zM408 909v607h254v-607h-254z" />
<glyph unicode="#" horiz-adv-x="1138" d="M45 428v201h207l35 258h-181v200h207l41 316h213l-41 -316h193l41 316h211l-41 -316h164v-200h-191l-35 -258h164v-201h-192l-41 -315h-213l41 315h-193l-41 -315h-211l41 315h-178zM465 629h192l33 258h-192z" />
<glyph unicode="$" horiz-adv-x="1138" d="M98 455h312q2 -82 47 -131.5t127 -49.5q63 0 102 44t39 116q0 29 -7 53.5t-26.5 45t-36 35t-50.5 31.5t-53.5 25.5t-63.5 27t-64 26.5q-68 29 -114 57.5t-94 75.5t-72.5 115.5t-24.5 158.5q0 164 89 273.5t247 124.5v147h237v-147q143 -29 222 -137.5t85 -260.5h-303 q-8 57 -49 98.5t-96 41.5q-53 0 -89 -35t-36 -94q0 -33 15.5 -58.5t50 -48t63.5 -37t87 -39t89 -39.5q141 -66 225 -165t84 -275q0 -170 -94 -289.5t-254 -128.5v-163h-237v163q-168 8 -264.5 136.5t-92.5 302.5z" />
<glyph unicode="%" horiz-adv-x="1820" d="M90 1155v2q0 178 100.5 280.5t260 102.5t260 -102.5t100.5 -282.5t-100.5 -282.5t-260 -102.5t-260 102.5t-100.5 282.5zM303 1153q0 -84 42 -133t105.5 -49t105.5 49t42 135t-42 135t-105.5 49t-105.5 -49t-42 -135v-2zM424 -25l752 1565h233l-752 -1565h-233zM1010 360 v2q0 178 100 280.5t260 102.5t260.5 -102t100.5 -282.5t-100.5 -283t-260.5 -102.5t-260 102.5t-100 282.5zM1223 358q0 -84 42 -133t105.5 -49t105.5 49t42 135t-42 135.5t-105.5 49.5t-105.5 -49.5t-42 -135.5v-2z" />
<glyph unicode="&#x26;" horiz-adv-x="1366" d="M70 418q0 170 73.5 288.5t196.5 178.5q-53 49 -90 125.5t-37 154.5q0 178 112.5 278.5t266.5 100.5q156 0 257 -109.5t101 -252.5q0 -121 -61.5 -216.5t-143.5 -142.5l132 -176l114 213h309l-239 -436l188 -240l-215 -184l-127 174q-158 -203 -375 -203 q-209 0 -335.5 129.5t-126.5 317.5zM389 455q0 -78 46 -129.5t122 -51.5q100 0 170 121l-197 262q-61 -33 -101 -89t-40 -113zM487 1194q0 -72 103 -166q86 72 86 154q0 43 -25.5 77.5t-62.5 34.5h-2q-41 0 -70 -27.5t-29 -72.5z" />
<glyph unicode="'" horiz-adv-x="454" d="M100 909v607h254v-607h-254z" />
<glyph unicode="(" horiz-adv-x="796" d="M96 545q0 344 182.5 610t436.5 365v-283q-172 -106 -269.5 -293.5t-97.5 -398.5t97.5 -398.5t269.5 -293.5v-283q-254 98 -436.5 364.5t-182.5 610.5z" />
<glyph unicode=")" horiz-adv-x="796" d="M82 -147q172 106 269.5 293.5t97.5 398.5t-97.5 398t-269.5 294v283q254 -98 436 -364.5t182 -610.5t-182 -610.5t-436 -364.5v283z" />
<glyph unicode="*" horiz-adv-x="909" d="M61 1032l295 98l-295 91l107 192l246 -209l-70 312h221l-65 -314l241 211l107 -192l-295 -95l295 -94l-115 -201l-237 218l69 -312h-221l66 316l-234 -222z" />
<glyph unicode="+" horiz-adv-x="1228" d="M96 393v250h393v393h250v-393h394v-250h-394v-393h-250v393h-393z" />
<glyph unicode="," horiz-adv-x="569" d="M29 -209l147 512h258l-188 -512h-217z" />
<glyph unicode="-" horiz-adv-x="681" d="M86 451v266h510v-266h-510z" />
<glyph unicode="." horiz-adv-x="569" d="M147 0v303h275v-303h-275z" />
<glyph unicode="/" horiz-adv-x="569" d="M-88 -25l471 1565h274l-471 -1565h-274z" />
<glyph unicode="0" horiz-adv-x="1138" d="M94 492v532q0 242 130 379t345 137t345 -137t130 -379v-532q0 -242 -130 -379.5t-345 -137.5t-345 137.5t-130 379.5zM385 512q0 -127 50 -190.5t134 -63.5t134.5 63.5t50.5 190.5v492q0 127 -50.5 190t-134.5 63t-134 -63.5t-50 -189.5v-492z" />
<glyph unicode="1" horiz-adv-x="1138" d="M233 1241v275h517v-1516h-291v1241h-226z" />
<glyph unicode="2" horiz-adv-x="1138" d="M90 1024q0 256 135 391q123 125 336 125q205 0 336 -137t131 -354q0 -195 -102 -334q-12 -16 -26.5 -33.5t-28 -33t-34 -37t-35 -37t-41 -42t-40.5 -42t-47 -47t-48 -47.5l-55 -54l-55 -55h518v-287h-928v303q104 104 236.5 242.5t165.5 171.5q125 127 163 194.5 t38 143.5q0 82 -45.5 128t-104.5 46q-158 0 -158 -205h-311z" />
<glyph unicode="3" horiz-adv-x="1138" d="M66 469h319q0 -96 49 -151.5t141 -55.5q76 0 123 53.5t47 139.5q0 109 -61 163t-164 54h-98v274h78q184 0 184 160q0 66 -37 106.5t-108 40.5q-63 0 -96 -48t-33 -122h-320q2 219 128 338t339 119q205 0 326 -110.5t121 -290.5q0 -227 -185 -305q246 -74 246 -394 q0 -201 -129 -333t-354 -132q-309 0 -441 215q-73 121 -75 279z" />
<glyph unicode="4" horiz-adv-x="1138" d="M70 303v275l528 938h299v-938h147v-275h-147v-303h-291v303h-536zM344 578h262v497z" />
<glyph unicode="5" horiz-adv-x="1138" d="M102 446h312q0 -70 40 -127t111 -57q94 0 135 64.5t41 208.5q0 252 -163 251q-55 0 -94.5 -35.5t-53.5 -95.5h-303l37 861h819v-259h-541l-12 -290q41 61 93 83.5t132 22.5q178 0 292 -135t114 -383q0 -276 -126 -428t-374 -152q-428 0 -459 471z" />
<glyph unicode="6" horiz-adv-x="1138" d="M76 512q0 127 43 234.5t137 246.5l358 523h338l-327 -472l-62 -92q35 16 78 17q180 0 301 -138.5t121 -341.5q0 -215 -133 -364.5t-359 -149.5q-205 0 -331 111q-164 139 -164 426zM401 465q0 -102 47.5 -163.5t123 -61.5t120.5 61t45 166q0 111 -44 174.5t-121.5 63.5 t-124 -63.5t-46.5 -174.5v-2z" />
<glyph unicode="7" horiz-adv-x="1138" d="M115 1241v275h909v-254l-434 -1262h-332l434 1241h-577z" />
<glyph unicode="8" horiz-adv-x="1138" d="M63 463q0 254 209 373q-80 39 -119.5 115.5t-39.5 168.5v2q0 184 128 301t328.5 117t328.5 -116.5t128 -303t-160 -289.5q96 -37 152.5 -140t56.5 -228q0 -231 -141 -359.5t-364.5 -128.5t-365 128.5t-141.5 359.5zM387 461q0 -82 52.5 -140.5t130 -58.5t130 58.5 t52.5 142.5q0 74 -52.5 129t-130 55t-130 -55t-52.5 -129v-2zM428 1077q0 -68 41 -111.5t100.5 -43.5t100.5 45t41 112q0 76 -41 125t-100.5 49t-100.5 -49t-41 -125v-2z" />
<glyph unicode="9" horiz-adv-x="1138" d="M76 1026q0 215 133 364.5t358 149.5q205 0 332 -110q164 -139 164 -426q0 -127 -43 -234.5t-137 -247.5l-359 -522h-338l328 471l61 92q-35 -16 -77 -16q-180 0 -301 138t-121 341zM397 1049q0 -111 44 -174.5t122 -63.5t124 63.5t46 174.5v2q0 102 -47 163.5t-123 61.5 t-121 -61.5t-45 -165.5z" />
<glyph unicode=":" horiz-adv-x="569" d="M147 0v303h275v-303h-275zM147 700v304h275v-304h-275z" />
<glyph unicode=";" horiz-adv-x="569" d="M29 -209l147 512h258l-188 -512h-217zM147 700v304h275v-304h-275z" />
<glyph unicode="&#x3c;" horiz-adv-x="1228" d="M96 395v246l1037 414v-275l-705 -264l705 -260v-274z" />
<glyph unicode="=" horiz-adv-x="1228" d="M96 168v250h1037v-250h-1037zM96 618v250h1037v-250h-1037z" />
<glyph unicode="&#x3e;" horiz-adv-x="1228" d="M96 -18v274l705 260l-705 264v275l1037 -414v-246z" />
<glyph unicode="?" d="M57 1057v73q0 199 120 304.5t329 105.5q186 0 313 -117.5t127 -304.5q0 -115 -46 -190.5t-130 -151.5q-119 -104 -135.5 -146t-16.5 -220h-303q0 29 -3 112.5t-1 118.5t18.5 91t49.5 99t100.5 100.5t107.5 103.5t40 95q0 123 -135 123q-53 0 -88 -36.5t-35 -108.5v-51 h-312zM315 0v311h303v-311h-303z" />
<glyph unicode="@" horiz-adv-x="1638" d="M90 756q0 350 214 567t550 217q178 0 335 -75.5t258 -224t101 -335.5q0 -168 -61.5 -295t-150.5 -189.5t-163.5 -91t-128.5 -28.5q-94 0 -116 105q-86 -104 -215 -105q-119 0 -211 103.5t-92 271.5q0 195 111.5 337t287.5 142q160 0 244 -121l18 101h189l-91 -500 q-10 -61 -10 -74q0 -37 27 -37q74 0 130 79t56 235q0 244 -144.5 377t-379.5 133q-238 0 -389.5 -166t-151.5 -426q0 -274 150.5 -431t425.5 -157q242 0 360 125h211q-219 -317 -588 -318q-344 0 -560 218.5t-216 562.5zM643 707q0 -74 40 -120t109.5 -46t121 40t71.5 105 q10 37 10 72q0 82 -46 129t-111 47q-82 0 -138.5 -69.5t-56.5 -155.5v-2z" />
<glyph unicode="A" horiz-adv-x="1138" d="M4 0l414 1516h287l430 -1516h-316l-78 289h-348l-74 -289h-315zM469 575h193l-97 496z" />
<glyph unicode="B" horiz-adv-x="1138" d="M129 0v1516h459q209 0 317 -109q100 -100 101 -272q0 -135 -66 -213t-184 -95q145 -31 227 -117.5t82 -265.5q0 -190 -111 -313q-121 -131 -321 -131h-504zM440 274h117q98 0 145 52q45 49 43 131q0 7 1 14q0 80 -44 125q-49 55 -145 55h-117v-377zM440 926h72 q86 0 131 39q43 43 43 122.5t-43 116.5t-131 37h-72v-315z" />
<glyph unicode="C" horiz-adv-x="1251" d="M68 758q0 387 146 586.5t402 199.5q266 0 410 -176q139 -171 139 -437v-16h-319q-6 190 -57.5 262t-147.5 72q-117 0 -185.5 -116.5t-68.5 -374.5t68.5 -375t185.5 -117q111 0 154 88t51 234h319q-2 -270 -146.5 -443.5t-402.5 -173.5q-256 0 -402 200t-146 587z" />
<glyph unicode="D" horiz-adv-x="1251" d="M127 0v1516h436q305 0 469 -224q150 -209 150 -534q0 -211 -66.5 -380t-207 -273.5t-335.5 -104.5h-446zM438 287h135q88 0 150.5 49t90.5 129t38 149.5t10 143.5q0 223 -69 344q-72 127 -230 127h-125v-942z" />
<glyph unicode="E" d="M143 0v1516h738v-287h-426v-291h426v-287h-426v-364h426v-287h-738z" />
<glyph unicode="F" horiz-adv-x="909" d="M119 0v1516h700v-287h-389v-287h389v-287h-389v-655h-311z" />
<glyph unicode="G" horiz-adv-x="1251" d="M68 758q0 362 145 574t422 212q238 0 377 -149.5t153 -413.5h-319q0 88 -33 158q-61 119 -178 118q-125 0 -186.5 -117.5t-61.5 -381.5q0 -268 59.5 -384t188.5 -116q106 0 166 86q45 68 45 176v19h-260v286h579v-293q0 -244 -144 -402.5t-386 -158.5q-285 0 -426 205 t-141 582z" />
<glyph unicode="H" horiz-adv-x="1251" d="M129 0v1516h311v-578h371v578h311v-1516h-311v651h-371v-651h-311z" />
<glyph unicode="I" horiz-adv-x="569" d="M129 0v1516h311v-1516h-311z" />
<glyph unicode="J" d="M8 389v86h311v-29q0 -111 28 -149.5t97 -38.5q68 0 97 37q29 41 28 151v1070h312v-1127q0 -111 -37 -194q-55 -121 -174 -177q-98 -47 -226 -47q-199 0 -317.5 108.5t-118.5 309.5z" />
<glyph unicode="K" horiz-adv-x="1138" d="M129 0v1516h311v-687l338 687h338l-393 -738l424 -778h-359l-348 696v-696h-311z" />
<glyph unicode="L" horiz-adv-x="909" d="M143 0v1516h312v-1229h397v-287h-709z" />
<glyph unicode="M" horiz-adv-x="1593" d="M135 0v1516h453l209 -977l209 977h452v-1516h-274v1176l-275 -1176h-225l-274 1176v-1176h-275z" />
<glyph unicode="N" horiz-adv-x="1251" d="M135 0v1516h316l389 -891v891h274v-1516h-278l-426 971v-971h-275z" />
<glyph unicode="O" horiz-adv-x="1251" d="M68 758v2q0 365 142 574.5t414.5 209.5t415 -210t142.5 -576.5t-142.5 -576.5t-415 -210t-414.5 210t-142 577zM387 756q0 -266 57.5 -382t180.5 -116t180 115.5t57 384t-57 384t-180 115.5t-180.5 -115.5t-57.5 -383.5v-2z" />
<glyph unicode="P" horiz-adv-x="1138" d="M143 0v1516h430q223 0 357 -127q139 -133 139 -367t-139 -367q-133 -127 -357 -127h-118v-528h-312zM455 815h114q94 0 136 49q45 47 45 158q0 113 -45 160q-41 47 -136 47h-114v-414z" />
<glyph unicode="Q" horiz-adv-x="1251" d="M68 757.5q0 366.5 142 576.5t414.5 210t415 -210t142.5 -576q0 -289 -90 -492q12 -7 33 -7t51 7v-286q-49 -8 -76 -9q-129 0 -205 72q-115 -72 -270 -72q-272 0 -414.5 210t-142.5 576.5zM387 758q0 -47 4 -117q86 29 158 29q78 0 141 -31q92 -45 160 -133q12 70 12 252 q0 264 -57 381.5t-180 117.5h-2q-121 0 -178.5 -117.5t-57.5 -381.5zM432 395q59 -137 193 -137h2q59 0 94 27q-37 53 -86 84q-63 37 -148 37q-28 -1 -55 -11z" />
<glyph unicode="R" horiz-adv-x="1138" d="M129 0v1516h393q305 0 418 -134q123 -150 123 -350q0 -131 -45 -229q-61 -135 -178 -199l286 -604h-348l-334 770q53 0 78 2q104 8 154 57q68 66 67 175q0 125 -71 184q-47 41 -160 41h-72v-1229h-311z" />
<glyph unicode="S" horiz-adv-x="1138" d="M70 477h311q4 -121 48 -176t144 -55q84 0 130.5 48t46.5 132q0 33 -14.5 60.5t-33 46t-57.5 38t-64.5 29.5t-78.5 29.5t-80 29.5q-72 29 -122 59t-101.5 77t-78 117.5t-26.5 162.5q0 217 125 344t340 127q211 0 330 -105.5t151 -328.5h-303q-4 84 -47 130t-119 46 q-72 0 -114.5 -47t-42.5 -119q0 -41 15 -71.5t55 -55t69 -38t94.5 -36t93.5 -34.5q72 -29 122 -60.5t101.5 -83t78 -130t26.5 -183.5q0 -209 -140.5 -334t-361.5 -125q-497 0 -497 506z" />
<glyph unicode="T" horiz-adv-x="909" d="M45 1229v287h819v-287h-254v-1229h-311v1229h-254z" />
<glyph unicode="U" horiz-adv-x="1251" d="M125 432v1084h311v-1033q0 -117 43 -166q41 -53 146 -53q102 0 147 53q41 49 41 166v1033h311v-1084q0 -217 -112 -330q-127 -131 -387 -131t-387 131q-113 115 -113 330z" />
<glyph unicode="V" horiz-adv-x="1138" d="M18 1516h304l251 -1043l256 1043h291l-413 -1516h-275z" />
<glyph unicode="W" horiz-adv-x="1705" d="M8 1516h316l196 -971l201 971h274l201 -971l188 971h312l-357 -1516h-274l-213 1024l-205 -1024h-274z" />
<glyph unicode="X" horiz-adv-x="1138" d="M2 0l397 819l-336 697h320l188 -431l189 431h323l-340 -697l394 -819h-328l-238 537l-241 -537h-328z" />
<glyph unicode="Y" d="M-8 1516h319l203 -619l199 619h319l-364 -910v-606h-312v606z" />
<glyph unicode="Z" d="M74 0v274l495 955h-450v287h815v-287l-500 -942h500v-287h-860z" />
<glyph unicode="[" horiz-adv-x="796" d="M127 -377v1893h545v-213h-299v-1467h299v-213h-545z" />
<glyph unicode="\" horiz-adv-x="569" d="M-76 1540h252l471 -1565h-252z" />
<glyph unicode="]" horiz-adv-x="796" d="M125 -164h299v1467h-299v213h545v-1893h-545v213z" />
<glyph unicode="^" horiz-adv-x="1228" d="M150 799l335 717h254l340 -717h-258l-209 471l-206 -471h-256z" />
<glyph unicode="_" d="M0 -154h1024v-102h-1024v102z" />
<glyph unicode="`" horiz-adv-x="569" d="M-88 1438l104 219l465 -252l-94 -178z" />
<glyph unicode="a" d="M63 582q0 295 94.5 450.5t272.5 155.5q174 0 225 -144v119h250v-1163h-250v111q-74 -135 -225 -136q-166 0 -266.5 153t-100.5 454zM338 580q0 -182 38 -256t111 -74q66 0 109 51q25 31 30 80t5 200.5t-5 200.5t-30 80q-43 51 -109 51q-74 0 -111.5 -73.5t-37.5 -257.5 v-2z" />
<glyph unicode="b" d="M119 0v1516h274v-353v-110q45 135 201 135q178 0 272.5 -155.5t94.5 -450.5q0 -301 -100.5 -454t-266.5 -153q-158 0 -225 140v-115h-250zM393 581.5q0 -69.5 1 -103.5t8.5 -86t22.5 -77.5t44 -45t72 -19.5q78 0 111.5 80t33.5 252v2q0 170 -34 249.5t-111 79.5 q-43 0 -72 -19.5t-44 -45t-22.5 -77.5t-8.5 -86t-1 -103.5z" />
<glyph unicode="c" horiz-adv-x="909" d="M51 581.5q0 288.5 121 447.5t330 159q182 0 278.5 -135t96.5 -332h-287q0 209 -109 209q-72 0 -102 -74q-37 -80 -37 -274q0 -190 35 -269.5t104 -79.5q109 0 109 209h287q0 -195 -97.5 -331t-277.5 -136q-209 0 -330 159t-121 447.5z" />
<glyph unicode="d" d="M63 582q0 295 94.5 450.5t272.5 155.5q143 0 203 -123q-2 33 -2 98v353h274v-1516h-250v131q-16 -72 -79.5 -114t-145.5 -42q-166 0 -266.5 153t-100.5 454zM338 580q0 -182 38 -256t111 -74q66 0 109 51q25 31 30 80t5 200.5t-5 200.5t-30 80q-43 51 -109 51 q-74 0 -111.5 -73.5t-37.5 -257.5v-2z" />
<glyph unicode="e" d="M74 581.5q0 266.5 114.5 436.5t333.5 170q227 0 338 -187q87 -151 88 -443q0 -36 -2 -75h-577q0 -104 34.5 -177t118.5 -73q113 0 144 144h272q-31 -223 -168 -326q-106 -76 -248 -76q-219 0 -333.5 170t-114.5 436.5zM369 717h303q0 246 -146 246q-74 0 -115.5 -62.5 t-41.5 -183.5z" />
<glyph unicode="f" horiz-adv-x="569" d="M33 905v258h106v47q0 332 426 332v-237q-33 0 -52 -2.5t-46 -12.5t-40 -36.5t-13 -69.5v-21h151v-258h-151v-905h-275v905h-106z" />
<glyph unicode="g" d="M63 582q0 301 88.5 453.5t278.5 152.5q84 0 140.5 -31t101.5 -108v114h233v-1151q0 -188 -108.5 -296.5t-313.5 -108.5q-152 0 -266.5 87t-134.5 236h287q16 -35 39 -49q29 -16 75 -16q86 0 118 45t36 131q0 41 -2 61q-43 -127 -205 -127q-190 0 -278.5 153t-88.5 454z M338 580q0 -182 38 -256t111 -74q66 0 109 51q25 31 30 80t5 200.5t-5 200.5t-30 80q-43 51 -109 51q-74 0 -111.5 -73.5t-37.5 -257.5v-2z" />
<glyph unicode="h" d="M119 0v1516h274v-328v-98q45 98 207 98q154 0 231 -96q74 -86 74 -244v-848h-274v766q0 66 -23 102q-27 45 -90 45q-59 0 -90 -30q-35 -31 -35 -97v-786h-274z" />
<glyph unicode="i" horiz-adv-x="569" d="M147 0v1163h275v-1163h-275zM147 1286v230h275v-230h-275z" />
<glyph unicode="j" horiz-adv-x="569" d="M29 -135h16q55 0 78.5 28.5t23.5 90.5v1179h275v-1224q0 -162 -80 -247t-231 -85h-82v258zM147 1286v230h275v-230h-275z" />
<glyph unicode="k" horiz-adv-x="909" d="M102 0v1516h275v-832l229 479h307l-299 -526l308 -637h-295l-250 524v-524h-275z" />
<glyph unicode="l" horiz-adv-x="569" d="M147 0v1516h275v-1516h-275z" />
<glyph unicode="m" horiz-adv-x="1593" d="M131 0v1163h258v-135q27 84 84 122t154 38q102 0 166 -51q35 -29 55 -76q25 43 76 78q80 49 190 49q172 0 264 -113q84 -98 84 -248v-827h-274v778q0 76 -29 105q-29 31 -92 30q-66 0 -96 -24q-37 -31 -37 -94v-795h-275v778q0 76 -28 105q-29 31 -92 30q-66 0 -97 -24 q-37 -31 -36 -94v-795h-275z" />
<glyph unicode="n" d="M119 0v1163h237v-110q37 68 92.5 101.5t155.5 33.5q143 0 222 -83t79 -255v-850h-274v760q0 154 -115 153q-123 0 -123 -135v-778h-274z" />
<glyph unicode="o" d="M63 582v2q0 264 115 434t334 170t334 -170t115 -436.5t-115 -436.5t-334 -170t-334 170.5t-115 436.5zM354 580q0 -195 41 -271t121 -76q76 0 115 77t39 271.5t-41 271.5t-121 77q-76 0 -115 -77t-39 -271v-2z" />
<glyph unicode="p" d="M119 -369v1532h250v-110q68 135 225 135q166 0 266.5 -152.5t100.5 -453.5q0 -295 -94.5 -451t-272.5 -156q-139 0 -201 111v-86v-369h-274zM393 581.5q0 -137.5 8.5 -192.5t34.5 -88q43 -51 101 -51q76 0 112.5 73.5t36.5 258.5v2q0 184 -37 256.5t-112 72.5 q-57 0 -101 -51q-27 -33 -35 -88t-8 -192.5z" />
<glyph unicode="q" d="M63 582q0 301 100.5 453.5t266.5 152.5q82 0 144.5 -39t72.5 -96v110h258v-1532h-274v369q0 66 2 100q-59 -125 -203 -125q-178 0 -272.5 156t-94.5 451zM338 580q0 -182 38 -256t111 -74q66 0 109 51q25 31 30 80t5 200.5t-5 200.5t-30 80q-43 51 -109 51 q-74 0 -111.5 -73.5t-37.5 -257.5v-2z" />
<glyph unicode="r" horiz-adv-x="681" d="M119 0v1163h250v-151q29 102 99.5 139t195.5 37v-338q-51 35 -121 35q-74 0 -112 -56.5t-38 -148.5v-680h-274z" />
<glyph unicode="s" horiz-adv-x="909" d="M25 373h274q4 -66 47 -107t111 -41q113 0 112 117q0 29 -13 50.5t-43 35.5t-55.5 23.5t-74.5 22.5t-76 22q-121 41 -191.5 118.5t-70.5 235.5q0 152 103.5 245t293.5 93q362 0 389 -369h-274q-6 131 -123 131q-47 0 -72.5 -24.5t-25.5 -65.5q0 -29 13 -49t43 -34.5 t55.5 -23t74.5 -20.5t76 -20q121 -39 191.5 -117t70.5 -240q0 -164 -116.5 -272.5t-294.5 -108.5q-176 0 -291 99.5t-133 298.5z" />
<glyph unicode="t" horiz-adv-x="569" d="M25 905v258h122v221h275v-221h123v-258h-123v-905h-275v905h-122z" />
<glyph unicode="u" d="M119 313v850h274v-760q0 -154 115 -153q123 0 123 135v778h274v-1163h-248v123q-29 -76 -82 -112t-155 -36q-143 0 -222 83t-79 255z" />
<glyph unicode="v" horiz-adv-x="909" d="M10 1163h279l178 -745l154 745h278l-303 -1163h-250z" />
<glyph unicode="w" horiz-adv-x="1366" d="M2 1163h283l127 -741l159 741h226l172 -741l110 741h283l-270 -1163h-254l-152 745l-147 -745h-263z" />
<glyph unicode="x" d="M8 0l332 606l-299 557h324l143 -356l151 356h316l-299 -557l340 -606h-328l-180 406l-172 -406h-328z" />
<glyph unicode="y" horiz-adv-x="909" d="M6 1163h287l168 -671l155 671h287l-442 -1532h-279l140 439z" />
<glyph unicode="z" horiz-adv-x="909" d="M57 0v258l426 647h-385v258h713v-258l-418 -647h418v-258h-754z" />
<glyph unicode="{" horiz-adv-x="796" d="M45 438v205q51 0 83 39t32 104v447q0 129 67.5 206t204.5 77h209v-213h-117q-61 0 -89.5 -31t-28.5 -103v-411q0 -39 -10.5 -73t-26 -55.5t-33 -39t-35.5 -26.5t-33.5 -15t-25.5 -8l-9 -2q29 -2 46.5 -6.5t44 -16.5t42 -33.5t28 -62.5t12.5 -96v-412q0 -72 28.5 -102.5 t89.5 -30.5h117v-213h-209q-137 0 -204.5 76.5t-67.5 205.5v447q0 66 -32 104.5t-83 38.5z" />
<glyph unicode="|" horiz-adv-x="454" d="M102 -512v2048h250v-2048h-250z" />
<glyph unicode="}" horiz-adv-x="796" d="M156 -221h116q61 0 90 30.5t29 102.5v412q0 39 10.5 72.5t25.5 55t32.5 39t36 26.5t34 15.5t23.5 8.5l10 2q-29 2 -46 6t-44 16.5t-42 34t-27.5 62t-12.5 96.5v411q0 72 -28.5 103t-90.5 31h-116v213h209q137 0 204.5 -77t67.5 -206v-447q0 -66 31.5 -104.5t83.5 -38.5 v-205q-51 0 -83 -39t-32 -104v-447q0 -129 -67.5 -205.5t-204.5 -76.5h-209v213z" />
<glyph unicode="~" horiz-adv-x="1228" d="M168 539q33 49 60.5 78.5t77.5 57t110 27.5q68 0 217 -55q143 -57 184 -57q88 0 166 121l78 -213q-33 -49 -60.5 -79t-78 -57.5t-109.5 -27.5q-74 0 -217 57q-150 55 -184 55q-88 0 -166 -120z" />
<glyph unicode="&#xa1;" horiz-adv-x="569" d="M133 -369v1110h303v-1110h-303zM133 852v311h303v-311h-303z" />
<glyph unicode="&#xa2;" horiz-adv-x="1138" d="M119 745q0 293 85 428.5t251 161.5v205h237v-205q291 -27 307 -438h-290q-12 92 -42 136t-89 44q-76 0 -112 -67.5t-36 -251.5q0 -178 40 -247t116 -69q53 0 84.5 51.5t38.5 129.5h290q-14 -412 -307 -439v-209h-237v209q-180 6 -269 213q-67 153 -67 348z" />
<glyph unicode="&#xa3;" horiz-adv-x="1138" d="M20 647v275h93q-35 84 -35 188q0 197 126 313.5t343 116.5q211 0 337 -127t128 -336h-312q-6 70 -56 111t-112 41q-70 0 -110.5 -42t-40.5 -112q0 -68 47 -153h320v-275h-209q59 -68 59 -178q0 -90 -35 -166h31q98 0 143 41q41 35 41 115v78h303q8 -78 9 -131 q0 -186 -121 -302q-117 -104 -289 -104h-614v303h190q31 49 31 164q0 92 -58 180h-209z" />
<glyph unicode="&#xa4;" horiz-adv-x="1138" d="M-12 346l182 184q-23 27 -40 90.5t-17 137.5q0 158 57 227l-182 184l174 170l182 -180q68 55 225 55q162 0 226 -55l182 180l176 -170l-184 -184q57 -66 57 -227q0 -166 -57 -228l184 -184l-176 -172l-182 182q-66 -55 -226 -55q-158 0 -225 55l-182 -182zM371 756 q0 -82 58 -141.5t140 -59.5t140.5 59.5t58.5 143.5t-57.5 143.5t-141.5 59.5t-141 -60.5t-57 -142.5v-2z" />
<glyph unicode="&#xa5;" horiz-adv-x="1138" d="M43 1516h326l202 -574l199 574h326l-222 -484h213v-274h-339l-33 -72v-31h372v-274h-372v-381h-291v381h-373v274h373v31l-33 72h-340v274h213z" />
<glyph unicode="&#xa6;" horiz-adv-x="454" d="M102 358h250v-716h-250v716zM102 666v716h250v-716h-250z" />
<glyph unicode="&#xa7;" d="M88 840q0 102 60.5 163.5t160.5 73.5q-98 109 -98 193q0 127 81 200.5t247 73.5q266 0 284 -291h-192q-14 106 -100.5 106.5t-86.5 -81.5q0 -47 97 -143l262 -261q133 -133 133 -251q0 -84 -59.5 -160t-145.5 -94q90 -111 90 -234q0 -117 -86 -195.5t-227 -78.5 q-53 0 -101.5 13t-95.5 45t-79.5 96.5t-41.5 156.5h193q4 -66 37 -96.5t78 -30.5q43 0 66.5 25.5t23.5 68.5q0 12 -4 25.5t-14.5 30l-17.5 27.5t-26.5 32.5t-29 33t-35 38t-35.5 36.5l-231 244q-107 113 -107 234zM313 864q0 -45 78 -123l238 -245q76 35 76 94v2 q0 49 -111 160l-205 206q-76 -35 -76 -94z" />
<glyph unicode="&#xa8;" horiz-adv-x="569" d="M-45 1311v229h258v-229h-258zM356 1311v229h258v-229h-258z" />
<glyph unicode="&#xa9;" horiz-adv-x="1638" d="M37 758q0 322 228.5 554t559.5 232h2q322 0 549.5 -233.5t227.5 -552.5q0 -326 -229.5 -556.5t-553 -230.5t-554 231.5t-230.5 555.5zM207 758q0 -260 181 -444.5t433 -184.5q254 0 433.5 183.5t179.5 445.5q0 256 -177.5 442t-433.5 186h-2q-258 0 -436 -184t-178 -444z M426 749.5q0 190.5 116.5 316.5t305.5 126q141 0 238.5 -83t117.5 -237h-184q-23 127 -172 127q-88 0 -140.5 -63.5t-52.5 -186t52.5 -186t140.5 -63.5q164 0 172 131h192q-18 -154 -120.5 -239t-243.5 -85q-188 0 -305 126t-117 316.5z" />
<glyph unicode="&#xaa;" horiz-adv-x="614" d="M8 1180q0 178 61.5 271t178.5 93q113 0 145 -86v72h180v-699h-180v66q-47 -80 -145 -80q-109 0 -174.5 91.5t-65.5 271.5zM205 1178q0 -182 86 -182.5t86 112.5v74v71q0 111 -86 111t-86 -184v-2z" />
<glyph unicode="&#xab;" horiz-adv-x="909" d="M49 582l201 372h237l-200 -372l200 -373h-237zM422 582l201 372h237l-201 -372l201 -373h-237z" />
<glyph unicode="&#xac;" horiz-adv-x="1228" d="M96 618v250h1037v-700h-250v450h-787z" />
<glyph unicode="&#xad;" horiz-adv-x="681" d="M86 451v266h510v-266h-510z" />
<glyph unicode="&#xae;" horiz-adv-x="1638" d="M37 758q0 322 228.5 554t559.5 232h2q322 0 549.5 -233.5t227.5 -552.5q0 -326 -229.5 -556.5t-553 -230.5t-554 231.5t-230.5 555.5zM207 758q0 -260 181 -444.5t433 -184.5q254 0 433.5 183.5t179.5 445.5q0 256 -177.5 442t-433.5 186h-2q-258 0 -436 -184t-178 -444z M485 330v872h369q137 0 228.5 -60.5t91.5 -185.5q0 -147 -142 -211q55 -23 87 -66.5t38 -135.5q12 -172 27 -213h-211q-8 14 -13.5 58t-10.5 94t-5 57q-4 25 -9 41t-19.5 39.5t-46 35t-81.5 11.5h-86v-336h-217zM702 807h105q150 0 149 133q0 113 -137 113h-117v-246z" />
<glyph unicode="&#xaf;" horiz-adv-x="569" d="M-57 1331v176h684v-176h-684z" />
<glyph unicode="&#xb0;" horiz-adv-x="819" d="M106 1237q0 127 88.5 215t215.5 88t215 -88t88 -215v-2q0 -127 -88 -214t-215 -87t-215.5 88t-88.5 215zM233 1235q0 -76 50.5 -129t126 -53t126 53t50.5 131t-50.5 131t-126 53t-126 -53t-50.5 -131v-2z" />
<glyph unicode="&#xb1;" horiz-adv-x="1228" d="M96 0v250h1037v-250h-1037zM96 549v250h393v237h250v-237h394v-250h-394v-238h-250v238h-393z" />
<glyph unicode="&#xb2;" horiz-adv-x="681" d="M29 1221q0 106 41 178q78 133 272 133q143 0 228 -82t85 -213q0 -129 -102 -229q-29 -29 -117 -97.5t-100 -79.5h313v-204h-618v190q264 233 305 273q55 53 70.5 80.5t15.5 68.5q0 96 -82 96q-39 0 -66.5 -26.5t-27.5 -87.5h-217z" />
<glyph unicode="&#xb3;" horiz-adv-x="681" d="M25 907h213q0 -51 28.5 -81.5t81.5 -30.5q102 0 103 100q0 125 -132 125h-75v164h63q53 0 78 20.5t25 65.5q0 78 -78 78q-84 0 -84 -91h-213q0 131 83 203t226 72q133 0 212 -64.5t79 -173.5q0 -127 -123 -178q76 -8 120 -68.5t44 -160.5q0 -117 -88 -197t-228 -80 q-201 0 -284 121q-51 70 -51 176z" />
<glyph unicode="&#xb4;" horiz-adv-x="569" d="M88 1405l465 252l104 -219l-475 -211z" />
<glyph unicode="&#xb5;" d="M119 -369v1532h274v-764q0 -76 24.5 -112.5t78.5 -36.5q63 0 96 33q39 35 39 116v764h274v-1163h-250v139q-12 -59 -69.5 -111.5t-153.5 -52.5q-27 0 -39 5v-103v-246h-274z" />
<glyph unicode="&#xb6;" horiz-adv-x="1269" d="M61 1147q0 369 451 369h696v-185h-82v-1462h-254v1462h-106v-1462h-254v909q-451 0 -451 369z" />
<glyph unicode="&#xb7;" horiz-adv-x="569" d="M123 354v328h321v-328h-321z" />
<glyph unicode="&#xb8;" horiz-adv-x="569" d="M33 -426l41 102q90 -37 168 -36q41 0 69.5 22.5t28.5 50.5q0 31 -25.5 52.5t-58.5 21.5q-10 0 -92 -16l-45 36l123 193h110l-90 -135q68 12 70 12q76 0 130 -41t54 -112q0 -94 -75.5 -148.5t-170.5 -54.5q-114 0 -237 53z" />
<glyph unicode="&#xb9;" horiz-adv-x="681" d="M115 1331v185h360v-889h-217v704h-143z" />
<glyph unicode="&#xba;" horiz-adv-x="614" d="M14 1180v2q0 160 76 261t219 101q141 0 216 -102.5t75 -262t-74.5 -262t-216.5 -102.5q-143 0 -219 102.5t-76 262.5zM215 1178q0 -199 94 -199q90 0 90 201q0 113 -24.5 156.5t-71.5 43.5q-88 0 -88 -200v-2z" />
<glyph unicode="&#xbb;" horiz-adv-x="909" d="M49 209l201 373l-201 372h238l200 -372l-200 -373h-238zM422 209l201 373l-201 372h237l201 -372l-201 -373h-237z" />
<glyph unicode="&#xbc;" horiz-adv-x="1708" d="M156 1331v185h360v-889h-217v704h-143zM383 -25l752 1565h233l-752 -1565h-233zM997 170v176l344 543h209v-535h90v-184h-90v-170h-204v170h-349zM1200 354h146v248z" />
<glyph unicode="&#xbd;" horiz-adv-x="1708" d="M156 1331v185h360v-889h-217v704h-143zM326 -25l751 1565h234l-752 -1565h-233zM1014 594q0 106 41 178q78 133 272 133q143 0 228 -82t85 -213q0 -129 -102 -229q-29 -29 -117 -97.5t-100 -78.5h313v-205h-618v190q264 233 305 273q55 53 70.5 80.5t15.5 68.5 q0 96 -82 97q-39 0 -66.5 -27t-27.5 -88h-217z" />
<glyph unicode="&#xbe;" horiz-adv-x="1708" d="M66 907h213q0 -51 28.5 -81.5t81.5 -30.5q102 0 103 100q0 125 -132 125h-75v164h63q53 0 78 20.5t25 65.5q0 78 -78 78q-84 0 -84 -91h-213q0 131 83 203t226 72q133 0 212 -64.5t79 -173.5q0 -127 -123 -178q76 -8 120 -68.5t44 -160.5q0 -117 -88 -197t-228 -80 q-201 0 -284 121q-51 70 -51 176zM424 -25l752 1565h233l-752 -1565h-233zM997 170v176l344 543h209v-535h90v-184h-90v-170h-204v170h-349zM1200 354h146v248z" />
<glyph unicode="&#xbf;" d="M78 45q0 115 46 190.5t130 151.5q119 104 135.5 146t16.5 221h303q0 -29 3 -113t1 -119t-18.5 -91t-49.5 -99t-100.5 -100.5t-107.5 -103.5t-40 -95q0 -123 135 -123q53 0 88 37t35 108v51h312v-73q0 -199 -120 -304.5t-329 -105.5q-186 0 -313 118t-127 304zM406 852 v311h303v-311h-303z" />
<glyph unicode="&#xc0;" horiz-adv-x="1138" d="M4 0l414 1516h287l430 -1516h-316l-78 289h-348l-74 -289h-315zM197 1759l104 219l465 -252l-94 -178zM469 575h193l-97 496z" />
<glyph unicode="&#xc1;" horiz-adv-x="1138" d="M4 0l414 1516h287l430 -1516h-316l-78 289h-348l-74 -289h-315zM373 1726l465 252l104 -219l-475 -211zM469 575h193l-97 496z" />
<glyph unicode="&#xc2;" horiz-adv-x="1138" d="M4 0l414 1516h287l430 -1516h-316l-78 289h-348l-74 -289h-315zM207 1604l231 303h262l232 -303h-234l-129 172l-129 -172h-233zM469 575h193l-97 496z" />
<glyph unicode="&#xc3;" horiz-adv-x="1138" d="M4 0l414 1516h287l430 -1516h-316l-78 289h-348l-74 -289h-315zM170 1796q90 86 205 86q100 0 192 -27q84 -27 156 -26q86 0 145 53l103 -172q-90 -86 -205 -86q-98 0 -193 27q-84 27 -155 26q-86 0 -146 -53zM469 575h193l-97 496z" />
<glyph unicode="&#xc4;" horiz-adv-x="1138" d="M4 0l414 1516h287l430 -1516h-316l-78 289h-348l-74 -289h-315zM240 1632v230h258v-230h-258zM469 575h193l-97 496zM641 1632v230h258v-230h-258z" />
<glyph unicode="&#xc5;" horiz-adv-x="1138" d="M4 0l414 1516h287l430 -1516h-316l-78 289h-348l-74 -289h-315zM336 1818.5q0 96.5 67.5 165t165.5 68.5h2q96 0 164 -68.5t68 -165t-67.5 -165t-166 -68.5t-166 68.5t-67.5 165zM467 1819q0 -45 28.5 -74t73.5 -29t74 29t29 74t-29 73.5t-74 28.5h-2q-43 0 -71.5 -28.5 t-28.5 -73.5zM469 575h193l-97 496z" />
<glyph unicode="&#xc6;" horiz-adv-x="1820" d="M-25 0l730 1516h942v-287h-500v-291h500v-287h-500v-364h500v-287h-811v291h-381l-123 -291h-357zM573 578h263v645z" />
<glyph unicode="&#xc7;" horiz-adv-x="1251" d="M68 758q0 387 146 586.5t402 199.5q266 0 409.5 -176t139.5 -453h-319q-6 190 -57.5 262t-147.5 72q-117 0 -185.5 -116.5t-68.5 -374.5t68.5 -375t185.5 -117q111 0 154 88t51 234h319q0 -250 -123.5 -419t-355.5 -194l-51 -108q31 12 72 12q55 0 99 -39t44 -116 q0 -96 -68.5 -149.5t-167.5 -53.5q-117 0 -215 59l41 103q68 -45 133 -45q45 0 74 21.5t29 52t-18.5 53t-43.5 22.5q-33 0 -51 -14l-78 34l86 166q-231 10 -367 211t-136 574z" />
<glyph unicode="&#xc8;" d="M139 1759l105 219l465 -252l-95 -178zM143 0v1516h738v-287h-426v-291h426v-287h-426v-364h426v-287h-738z" />
<glyph unicode="&#xc9;" d="M143 0v1516h738v-287h-426v-291h426v-287h-426v-364h426v-287h-738zM315 1726l465 252l105 -219l-475 -211z" />
<glyph unicode="&#xca;" d="M143 0v1516h738v-287h-426v-291h426v-287h-426v-364h426v-287h-738zM150 1604l231 303h262l231 -303h-233l-129 172l-129 -172h-233z" />
<glyph unicode="&#xcb;" d="M143 0v1516h738v-287h-426v-291h426v-287h-426v-364h426v-287h-738zM182 1632v230h258v-230h-258zM584 1632v230h258v-230h-258z" />
<glyph unicode="&#xcc;" horiz-adv-x="569" d="M-88 1759l104 219l465 -252l-94 -178zM129 0v1516h311v-1516h-311z" />
<glyph unicode="&#xcd;" horiz-adv-x="569" d="M88 1726l465 252l104 -219l-475 -211zM129 0v1516h311v-1516h-311z" />
<glyph unicode="&#xce;" horiz-adv-x="569" d="M-78 1604l232 303h262l231 -303h-233l-129 172l-129 -172h-234zM129 0v1516h311v-1516h-311z" />
<glyph unicode="&#xcf;" horiz-adv-x="569" d="M-45 1632v230h258v-230h-258zM129 0v1516h311v-1516h-311zM356 1632v230h258v-230h-258z" />
<glyph unicode="&#xd0;" horiz-adv-x="1251" d="M8 635v287h119v594h436q305 0 469 -224q150 -209 150 -534q0 -211 -66.5 -380t-207 -273.5t-335.5 -104.5h-446v635h-119zM438 287h135q141 0 215 126t74 345q0 223 -69 344q-72 127 -230 127h-125v-307h234v-287h-234v-348z" />
<glyph unicode="&#xd1;" horiz-adv-x="1251" d="M135 0v1516h316l389 -891v891h274v-1516h-278l-426 971v-971h-275zM227 1786q90 86 205 86q100 0 193 -27q84 -27 155 -26q86 0 146 53l102 -172q-90 -86 -205 -86q-98 0 -192 26q-84 27 -156 27q-86 0 -145 -53z" />
<glyph unicode="&#xd2;" horiz-adv-x="1251" d="M68 758v2q0 365 142 574.5t414.5 209.5t415 -210t142.5 -576.5t-142.5 -576.5t-415 -210t-414.5 210t-142 577zM254 1759l104 219l465 -252l-94 -178zM387 756q0 -266 57.5 -382t180.5 -116t180 115.5t57 384t-57 384t-180 115.5t-180.5 -115.5t-57.5 -383.5v-2z" />
<glyph unicode="&#xd3;" horiz-adv-x="1251" d="M68 758v2q0 365 142 574.5t414.5 209.5t415 -210t142.5 -576.5t-142.5 -576.5t-415 -210t-414.5 210t-142 577zM387 756q0 -266 57.5 -382t180.5 -116t180 115.5t57 384t-57 384t-180 115.5t-180.5 -115.5t-57.5 -383.5v-2zM430 1726l465 252l104 -219l-475 -211z" />
<glyph unicode="&#xd4;" horiz-adv-x="1251" d="M68 758v2q0 365 142 574.5t414.5 209.5t415 -210t142.5 -576.5t-142.5 -576.5t-415 -210t-414.5 210t-142 577zM264 1604l232 303h262l231 -303h-233l-129 172l-129 -172h-234zM387 756q0 -266 57.5 -382t180.5 -116t180 115.5t57 384t-57 384t-180 115.5t-180.5 -115.5 t-57.5 -383.5v-2z" />
<glyph unicode="&#xd5;" horiz-adv-x="1251" d="M68 758v2q0 365 142 574.5t414.5 209.5t415 -210t142.5 -576.5t-142.5 -576.5t-415 -210t-414.5 210t-142 577zM227 1796q90 86 205 86q100 0 193 -27q84 -27 155 -26q86 0 146 53l102 -172q-90 -86 -205 -86q-98 0 -192 27q-84 27 -156 26q-86 0 -145 -53zM387 756 q0 -266 57.5 -382t180.5 -116t180 115.5t57 384t-57 384t-180 115.5t-180.5 -115.5t-57.5 -383.5v-2z" />
<glyph unicode="&#xd6;" horiz-adv-x="1251" d="M68 758v2q0 365 142 574.5t414.5 209.5t415 -210t142.5 -576.5t-142.5 -576.5t-415 -210t-414.5 210t-142 577zM297 1632v230h258v-230h-258zM387 756q0 -266 57.5 -382t180.5 -116t180 115.5t57 384t-57 384t-180 115.5t-180.5 -115.5t-57.5 -383.5v-2zM698 1632v230 h258v-230h-258z" />
<glyph unicode="&#xd7;" horiz-adv-x="1228" d="M96 180l342 338l-342 338l178 180l340 -342l340 342l179 -180l-342 -338l342 -338l-179 -180l-340 342l-340 -342z" />
<glyph unicode="&#xd8;" horiz-adv-x="1251" d="M-86 -51l242 330q-88 188 -88 479q0 367 142 576.5t415 209.5q227 0 364 -149l127 172h242l-258 -344q82 -182 82 -465q0 -367 -142.5 -577t-414.5 -210q-215 0 -351 135l-118 -157h-242zM387 758q0 -123 2 -174l410 555q-49 119 -174 118q-123 0 -180.5 -115.5 t-57.5 -383.5zM459 358q49 -100 166 -100q123 0 180 115.5t57 384.5q0 123 -2 153z" />
<glyph unicode="&#xd9;" horiz-adv-x="1251" d="M125 432v1084h311v-1033q0 -117 43 -166q41 -53 146 -53q102 0 147 53q41 49 41 166v1033h311v-1084q0 -217 -112 -330q-127 -131 -387 -131t-387 131q-113 115 -113 330zM254 1759l104 219l465 -252l-94 -178z" />
<glyph unicode="&#xda;" horiz-adv-x="1251" d="M125 432v1084h311v-1033q0 -117 43 -166q41 -53 146 -53q102 0 147 53q41 49 41 166v1033h311v-1084q0 -217 -112 -330q-127 -131 -387 -131t-387 131q-113 115 -113 330zM430 1726l465 252l104 -219l-475 -211z" />
<glyph unicode="&#xdb;" horiz-adv-x="1251" d="M125 432v1084h311v-1033q0 -117 43 -166q41 -53 146 -53q102 0 147 53q41 49 41 166v1033h311v-1084q0 -217 -112 -330q-127 -131 -387 -131t-387 131q-113 115 -113 330zM264 1604l232 303h262l231 -303h-233l-129 172l-129 -172h-234z" />
<glyph unicode="&#xdc;" horiz-adv-x="1251" d="M125 432v1084h311v-1033q0 -117 43 -166q41 -53 146 -53q102 0 147 53q41 49 41 166v1033h311v-1084q0 -217 -112 -330q-127 -131 -387 -131t-387 131q-113 115 -113 330zM297 1632v230h258v-230h-258zM698 1632v230h258v-230h-258z" />
<glyph unicode="&#xdd;" d="M-8 1516h319l203 -619l199 619h319l-364 -910v-606h-312v606zM315 1726l465 252l105 -219l-475 -211z" />
<glyph unicode="&#xde;" horiz-adv-x="1138" d="M143 0v1516h312v-250h118q221 0 357 -125q139 -129 139 -358.5t-139 -358.5q-135 -125 -357 -125h-118v-299h-312zM455 586h114q94 0 136 47q45 47 45 149q0 104 -45 150q-41 47 -136 47h-114v-393z" />
<glyph unicode="&#xdf;" horiz-adv-x="1138" d="M123 0v1126q0 219 116.5 317.5t344.5 98.5q195 0 303 -104.5t108 -270.5q0 -301 -237 -360q156 -20 233.5 -117.5t77.5 -249.5q0 -217 -109.5 -341t-314.5 -124q-221 0 -280 138v-113h-242zM397 438h95q0 -86 37.5 -145.5t105.5 -59.5q57 0 100 52.5t43 134.5 q0 121 -51 168q-59 55 -133 57q-57 4 -111 4v254q18 0 45 2q176 14 177 215q0 76 -43.5 120t-122.5 44q-68 0 -105 -37t-37 -151v-658z" />
<glyph unicode="&#xe0;" d="M63 582q0 295 94.5 450.5t272.5 155.5q174 0 225 -144v119h250v-1163h-250v111q-74 -135 -225 -136q-166 0 -266.5 153t-100.5 454zM139 1438l105 219l465 -252l-95 -178zM338 580q0 -182 38 -256t111 -74q66 0 109 51q25 31 30 80t5 200.5t-5 200.5t-30 80 q-43 51 -109 51q-74 0 -111.5 -73.5t-37.5 -257.5v-2z" />
<glyph unicode="&#xe1;" d="M63 582q0 295 94.5 450.5t272.5 155.5q174 0 225 -144v119h250v-1163h-250v111q-74 -135 -225 -136q-166 0 -266.5 153t-100.5 454zM315 1405l465 252l105 -219l-475 -211zM338 580q0 -182 38 -256t111 -74q66 0 109 51q25 31 30 80t5 200.5t-5 200.5t-30 80 q-43 51 -109 51q-74 0 -111.5 -73.5t-37.5 -257.5v-2z" />
<glyph unicode="&#xe2;" d="M63 582q0 295 94.5 450.5t272.5 155.5q174 0 225 -144v119h250v-1163h-250v111q-74 -135 -225 -136q-166 0 -266.5 153t-100.5 454zM129 1282l231 303h263l231 -303h-233l-129 172l-130 -172h-233zM338 580q0 -182 38 -256t111 -74q66 0 109 51q25 31 30 80t5 200.5 t-5 200.5t-30 80q-43 51 -109 51q-74 0 -111.5 -73.5t-37.5 -257.5v-2z" />
<glyph unicode="&#xe3;" d="M63 582q0 295 94.5 450.5t272.5 155.5q174 0 225 -144v119h250v-1163h-250v111q-74 -135 -225 -136q-166 0 -266.5 153t-100.5 454zM113 1475q90 86 204 86q100 0 193 -27q84 -27 156 -27q86 0 145 54l102 -172q-90 -86 -204 -86q-98 0 -193 26q-84 27 -156 27 q-86 0 -145 -53zM338 580q0 -182 38 -256t111 -74q66 0 109 51q25 31 30 80t5 200.5t-5 200.5t-30 80q-43 51 -109 51q-74 0 -111.5 -73.5t-37.5 -257.5v-2z" />
<glyph unicode="&#xe4;" d="M63 582q0 295 94.5 450.5t272.5 155.5q174 0 225 -144v119h250v-1163h-250v111q-74 -135 -225 -136q-166 0 -266.5 153t-100.5 454zM141 1311v229h258v-229h-258zM338 580q0 -182 38 -256t111 -74q66 0 109 51q25 31 30 80t5 200.5t-5 200.5t-30 80q-43 51 -109 51 q-74 0 -111.5 -73.5t-37.5 -257.5v-2zM543 1311v229h258v-229h-258z" />
<glyph unicode="&#xe5;" d="M63 582q0 295 94.5 450.5t272.5 155.5q174 0 225 -144v119h250v-1163h-250v111q-74 -135 -225 -136q-166 0 -266.5 153t-100.5 454zM238 1487q0 96 67.5 164.5t165.5 68.5h2q96 0 164 -68.5t68 -164.5t-68 -165t-166 -69t-165.5 69t-67.5 165zM338 580q0 -182 38 -256 t111 -74q66 0 109 51q25 31 30 80t5 200.5t-5 200.5t-30 80q-43 51 -109 51q-74 0 -111.5 -73.5t-37.5 -257.5v-2zM369 1487q0 -45 28.5 -74t73.5 -29t73.5 29t28.5 74t-28.5 73.5t-73.5 28.5h-2q-43 0 -71.5 -28.5t-28.5 -73.5z" />
<glyph unicode="&#xe6;" horiz-adv-x="1593" d="M33 582q0 606 397 606q166 0 227 -129l-2 104h250l-2 -104q45 74 97.5 101.5t140.5 27.5q188 0 297 -154q51 -72 75.5 -173t27.5 -165.5t3 -191.5h-626q0 -74 8 -125t48 -98.5t111 -47.5q145 0 177 144h274q-16 -172 -119 -285q-111 -117 -280 -117q-162 0 -234 123 l2 -98h-250l2 98q-66 -123 -231 -123q-182 0 -287.5 152t-105.5 455zM307 580q0 -330 172 -330q47 0 80 18.5t49.5 41t24.5 74.5t9 87t1 111q0 143 -6 196t-37 88q-41 47 -121 47q-172 0 -172 -331v-2zM918 700h352q0 119 -38 191t-149 72q-100 0 -139 -89q-26 -61 -26 -174 z" />
<glyph unicode="&#xe7;" horiz-adv-x="909" d="M51 582q0 289 121 447.5t330 158.5q182 0 278.5 -135t96.5 -332h-287q0 209 -109 209q-72 0 -102 -74q-37 -80 -37 -274q0 -190 35 -269.5t104 -79.5q109 0 109 209h287q0 -182 -87.5 -316t-250.5 -146l-47 -103q31 12 71 12q49 0 96.5 -42t47.5 -123q0 -86 -72 -134.5 t-154 -48.5q-117 0 -215 60l41 102q68 -45 123 -45q43 0 72.5 20.5t29.5 43t-17 44t-34 21.5q-33 0 -51 -14l-84 34l80 177q-176 27 -275.5 182.5t-99.5 415.5z" />
<glyph unicode="&#xe8;" d="M74 581.5q0 266.5 114.5 436.5t333.5 170q227 0 338 -187q98 -170 86 -518h-577q0 -104 34.5 -177t118.5 -73q113 0 144 144h272q-31 -223 -168 -326q-106 -76 -248 -76q-219 0 -333.5 170t-114.5 436.5zM139 1438l105 219l465 -252l-95 -178zM369 717h303 q0 246 -146 246q-74 0 -115.5 -62.5t-41.5 -183.5z" />
<glyph unicode="&#xe9;" d="M74 581.5q0 266.5 114.5 436.5t333.5 170q227 0 338 -187q98 -170 86 -518h-577q0 -104 34.5 -177t118.5 -73q113 0 144 144h272q-31 -223 -168 -326q-106 -76 -248 -76q-219 0 -333.5 170t-114.5 436.5zM315 1405l465 252l105 -219l-475 -211zM369 717h303 q0 246 -146 246q-74 0 -115.5 -62.5t-41.5 -183.5z" />
<glyph unicode="&#xea;" d="M74 581.5q0 266.5 114.5 436.5t333.5 170q227 0 338 -187q98 -170 86 -518h-577q0 -104 34.5 -177t118.5 -73q113 0 144 144h272q-31 -223 -168 -326q-106 -76 -248 -76q-219 0 -333.5 170t-114.5 436.5zM150 1282l231 303h262l231 -303h-233l-129 172l-129 -172h-233z M369 717h303q0 246 -146 246q-74 0 -115.5 -62.5t-41.5 -183.5z" />
<glyph unicode="&#xeb;" d="M74 581.5q0 266.5 114.5 436.5t333.5 170q227 0 338 -187q98 -170 86 -518h-577q0 -104 34.5 -177t118.5 -73q113 0 144 144h272q-31 -223 -168 -326q-106 -76 -248 -76q-219 0 -333.5 170t-114.5 436.5zM182 1311v229h258v-229h-258zM369 717h303q0 246 -146 246 q-74 0 -115.5 -62.5t-41.5 -183.5zM584 1311v229h258v-229h-258z" />
<glyph unicode="&#xec;" horiz-adv-x="569" d="M-47 1438l104 219l465 -252l-94 -178zM147 0v1163h275v-1163h-275z" />
<glyph unicode="&#xed;" horiz-adv-x="569" d="M47 1405l465 252l104 -219l-475 -211zM147 0v1163h275v-1163h-275z" />
<glyph unicode="&#xee;" horiz-adv-x="569" d="M-78 1282l232 303h262l231 -303h-233l-129 172l-129 -172h-234zM147 0v1163h275v-1163h-275z" />
<glyph unicode="&#xef;" horiz-adv-x="569" d="M-45 1311v229h258v-229h-258zM147 0v1163h275v-1163h-275zM356 1311v229h258v-229h-258z" />
<glyph unicode="&#xf0;" d="M63 506q0 231 102.5 380.5t264.5 149.5q90 0 154 -63q-6 37 -37 96q-27 53 -62 86l-342 -135v219l205 80q-49 70 -164 135l256 90q94 -72 154 -131l328 131v-219l-189 -74q6 -8 34 -46t40 -57.5t33.5 -58t38.5 -79.5q82 -215 82 -396q0 -639 -469 -639q-215 0 -322 144.5 t-107 386.5zM338 504q0 -270 154 -271q178 0 178 279q0 266 -168 266q-82 0 -123 -61.5t-41 -210.5v-2z" />
<glyph unicode="&#xf1;" d="M113 1475q90 86 204 86q100 0 193 -27q84 -27 156 -27q86 0 145 54l102 -172q-90 -86 -204 -86q-98 0 -193 26q-84 27 -156 27q-86 0 -145 -53zM119 0v1163h237v-110q37 68 92.5 101.5t155.5 33.5q143 0 222 -83t79 -255v-850h-274v760q0 154 -115 153q-123 0 -123 -135 v-778h-274z" />
<glyph unicode="&#xf2;" d="M63 582v2q0 264 115 434t334 170t334 -170t115 -436.5t-115 -436.5t-334 -170t-334 170.5t-115 436.5zM139 1438l105 219l465 -252l-95 -178zM354 580q0 -195 41 -271t121 -76q76 0 115 77t39 271.5t-41 271.5t-121 77q-76 0 -115 -77t-39 -271v-2z" />
<glyph unicode="&#xf3;" d="M63 582v2q0 264 115 434t334 170t334 -170t115 -436.5t-115 -436.5t-334 -170t-334 170.5t-115 436.5zM315 1405l465 252l105 -219l-475 -211zM354 580q0 -195 41 -271t121 -76q76 0 115 77t39 271.5t-41 271.5t-121 77q-76 0 -115 -77t-39 -271v-2z" />
<glyph unicode="&#xf4;" d="M63 582v2q0 264 115 434t334 170t334 -170t115 -436.5t-115 -436.5t-334 -170t-334 170.5t-115 436.5zM150 1282l231 303h262l231 -303h-233l-129 172l-129 -172h-233zM354 580q0 -195 41 -271t121 -76q76 0 115 77t39 271.5t-41 271.5t-121 77q-76 0 -115 -77t-39 -271 v-2z" />
<glyph unicode="&#xf5;" d="M63 582v2q0 264 115 434t334 170t334 -170t115 -436.5t-115 -436.5t-334 -170t-334 170.5t-115 436.5zM113 1475q90 86 204 86q100 0 193 -27q84 -27 156 -27q86 0 145 54l102 -172q-90 -86 -204 -86q-98 0 -193 26q-84 27 -156 27q-86 0 -145 -53zM354 580 q0 -195 41 -271t121 -76q76 0 115 77t39 271.5t-41 271.5t-121 77q-76 0 -115 -77t-39 -271v-2z" />
<glyph unicode="&#xf6;" d="M63 582v2q0 264 115 434t334 170t334 -170t115 -436.5t-115 -436.5t-334 -170t-334 170.5t-115 436.5zM182 1311v229h258v-229h-258zM354 580q0 -195 41 -271t121 -76q76 0 115 77t39 271.5t-41 271.5t-121 77q-76 0 -115 -77t-39 -271v-2zM584 1311v229h258v-229h-258z " />
<glyph unicode="&#xf7;" horiz-adv-x="1228" d="M96 393v250h1037v-250h-1037zM453 -117v328h321v-328h-321zM453 825v328h321v-328h-321z" />
<glyph unicode="&#xf8;" d="M-4 -41l154 238q-86 152 -87 385q0 266 115 436t334 170q139 0 236 -72l59 88h221l-156 -235q88 -152 89 -387q0 -266 -115 -436.5t-334 -170.5q-137 0 -238 74l-57 -90h-221zM348 582q0 -23 4 -97l244 402q-29 43 -88 43q-160 0 -160 -348zM426 279q29 -45 90 -46 q160 0 160 349q0 27 -4 100z" />
<glyph unicode="&#xf9;" d="M119 313v850h274v-760q0 -154 115 -153q123 0 123 135v778h274v-1163h-248v123q-29 -76 -82 -112t-155 -36q-143 0 -222 83t-79 255zM139 1438l105 219l465 -252l-95 -178z" />
<glyph unicode="&#xfa;" d="M119 313v850h274v-760q0 -154 115 -153q123 0 123 135v778h274v-1163h-248v123q-29 -76 -82 -112t-155 -36q-143 0 -222 83t-79 255zM315 1405l465 252l105 -219l-475 -211z" />
<glyph unicode="&#xfb;" d="M119 313v850h274v-760q0 -154 115 -153q123 0 123 135v778h274v-1163h-248v123q-29 -76 -82 -112t-155 -36q-143 0 -222 83t-79 255zM150 1282l231 303h262l231 -303h-233l-129 172l-129 -172h-233z" />
<glyph unicode="&#xfc;" d="M119 313v850h274v-760q0 -154 115 -153q123 0 123 135v778h274v-1163h-248v123q-29 -76 -82 -112t-155 -36q-143 0 -222 83t-79 255zM182 1311v229h258v-229h-258zM584 1311v229h258v-229h-258z" />
<glyph unicode="&#xfd;" horiz-adv-x="909" d="M6 1163h287l168 -671l155 671h287l-442 -1532h-279l140 439zM258 1405l465 252l104 -219l-475 -211z" />
<glyph unicode="&#xfe;" d="M119 -369v1885h276v-332v-86q10 29 63.5 59.5t135.5 30.5q166 0 266.5 -152.5t100.5 -453.5q0 -295 -94.5 -451t-272.5 -156q-139 0 -201 111v-111v-344h-274zM393 581.5q0 -137.5 8.5 -192.5t34.5 -88q43 -51 101 -51q76 0 112.5 73.5t36.5 258.5v2q0 184 -37 256.5 t-112 72.5q-57 0 -101 -51q-27 -33 -35 -88t-8 -192.5z" />
<glyph unicode="&#xff;" horiz-adv-x="909" d="M6 1163h287l168 -671l155 671h287l-442 -1532h-279l140 439zM125 1311v229h258v-229h-258zM526 1311v229h258v-229h-258z" />
<glyph unicode="&#x152;" horiz-adv-x="1820" d="M68 758q0 387 152.5 586.5t395.5 199.5q225 0 318 -162v68v66h743v-287h-477v-291h477v-287h-477v-364h477v-287h-743v70v69q-88 -168 -318 -168q-244 0 -396 200t-152 587zM387 739q0 -236 74 -356.5t182 -120.5q57 0 98 18.5t76 67.5t53.5 147.5t18.5 245.5 q0 160 -18.5 264.5t-54.5 156.5t-78 71.5t-101 19.5q-106 0 -178 -127t-72 -385v-2z" />
<glyph unicode="&#x153;" horiz-adv-x="1593" d="M57 582q0 266 113 436t326 170q225 0 305 -174q90 174 329 174q221 0 328 -182q41 -70 61.5 -166.5t22.5 -156.5t2 -179h-598q0 -41 1 -61.5t4 -59.5t13.5 -59.5t27 -45t44 -35t66.5 -10.5q129 0 160 144h274q-31 -223 -168 -326q-106 -76 -248 -76q-227 0 -321 189 q-78 -188 -316 -189q-205 0 -315.5 171.5t-110.5 435.5zM348 580q0 -195 41 -271t121 -76t121 77t41 272q0 197 -42 272.5t-128 75.5q-76 0 -115 -77t-39 -271v-2zM946 700h324q0 51 -5 90t-19.5 82t-49.5 67t-88 24q-162 -1 -162 -263z" />
<glyph unicode="&#x178;" d="M-8 1516h319l203 -619l199 619h319l-364 -910v-606h-312v606zM182 1632v230h258v-230h-258zM584 1632v230h258v-230h-258z" />
<glyph unicode="&#x2c6;" horiz-adv-x="569" d="M-78 1282l232 303h262l231 -303h-233l-129 172l-129 -172h-234z" />
<glyph unicode="&#x2dc;" horiz-adv-x="569" d="M-115 1475q90 86 205 86q98 0 193 -27q84 -27 155 -27q86 0 146 54l102 -172q-90 -86 -205 -86q-100 0 -192 26q-84 27 -156 27q-86 0 -145 -53z" />
<glyph unicode="&#x2013;" d="M0 451v266h1024v-266h-1024z" />
<glyph unicode="&#x2014;" horiz-adv-x="2048" d="M0 451v266h2048v-266h-2048z" />
<glyph unicode="&#x2018;" horiz-adv-x="454" d="M-12 1516h291l172 -512h-246z" />
<glyph unicode="&#x2019;" horiz-adv-x="454" d="M4 1004l172 512h291l-217 -512h-246z" />
<glyph unicode="&#x201a;" horiz-adv-x="454" d="M4 -209l172 512h291l-217 -512h-246z" />
<glyph unicode="&#x201c;" horiz-adv-x="909" d="M25 1516h290l172 -512h-245zM403 1516h291l172 -512h-245z" />
<glyph unicode="&#x201d;" horiz-adv-x="909" d="M43 1004l172 512h291l-217 -512h-246zM422 1004l172 512h291l-217 -512h-246z" />
<glyph unicode="&#x201e;" horiz-adv-x="909" d="M43 -209l172 512h291l-217 -512h-246zM422 -209l172 512h291l-217 -512h-246z" />
<glyph unicode="&#x2022;" d="M141 741q-2 154 106.5 262.5t264.5 108.5h2q156 0 263.5 -108.5t105.5 -262.5q2 -154 -106.5 -262t-264.5 -108t-264.5 108t-106.5 262z" />
<glyph unicode="&#x2026;" horiz-adv-x="2048" d="M205 0v303h274v-303h-274zM887 0v303h274v-303h-274zM1569 0v303h274v-303h-274z" />
<glyph unicode="&#x2039;" horiz-adv-x="569" d="M66 582l200 372h238l-201 -372l201 -373h-238z" />
<glyph unicode="&#x203a;" horiz-adv-x="569" d="M66 209l200 373l-200 372h237l201 -372l-201 -373h-237z" />
<glyph unicode="&#x20ac;" horiz-adv-x="1138" d="M20 518l37 197h125v43v49h-162l37 197h142q31 236 148.5 386t328.5 150q113 0 196.5 -41t130 -110.5t70 -140t31.5 -150.5h-273q-18 160 -155 159q-160 0 -187 -253h396l-37 -197h-371v-49v-43h354l-36 -197h-308q8 -117 54.5 -188.5t134.5 -71.5q57 0 101 36t52 112h273 q-16 -133 -65.5 -225.5t-116 -133.5t-125 -56.5t-121.5 -15.5q-215 0 -332 156t-145 387h-177z" />
<glyph unicode="&#x2122;" horiz-adv-x="2048" d="M41 1319v197h729v-197h-238v-676h-253v676h-238zM870 643v873h332l189 -504l188 504h330v-873h-230v569l-196 -569h-187l-196 569v-569h-230z" />
<glyph unicode="&#xe000;" horiz-adv-x="1165" d="M0 1165h1165v-1165h-1165v1165z" />
<glyph unicode="&#xfb01;" horiz-adv-x="1138" d="M53 905v258h107v47q0 332 426 332v-237q-33 0 -52.5 -2.5t-46 -12.5t-40 -36.5t-13.5 -69.5v-21h557v-1163h-274v905h-283v-905h-274v905h-107zM717 1286v230h274v-230h-274z" />
<glyph unicode="&#xfb02;" horiz-adv-x="1138" d="M53 905v258h107v47q0 332 426 332v-237q-33 0 -52.5 -2.5t-46 -12.5t-40 -36.5t-13.5 -69.5v-21h283v353h274v-1516h-274v905h-283v-905h-274v905h-107z" />
<glyph unicode="&#xfb03;" horiz-adv-x="1708" d="M1286 0v1163h275v-1163h-275zM1286 1286v230h275v-230h-275zM602 905v258h106v47q0 332 426 332v-237q-33 0 -52 -2.5t-46 -12.5t-40 -36.5t-13 -69.5v-21h151v-258h-151v-905h-275v905h-106zM33 905v258h106v47q0 332 426 332v-237q-33 0 -52 -2.5t-46 -12.5t-40 -36.5 t-13 -69.5v-21h151v-258h-151v-905h-275v905h-106z" />
<glyph unicode="&#xfb04;" horiz-adv-x="1708" d="M1286 0v1516h275v-1516h-275zM602 905v258h106v47q0 332 426 332v-237q-33 0 -52 -2.5t-46 -12.5t-40 -36.5t-13 -69.5v-21h151v-258h-151v-905h-275v905h-106zM33 905v258h106v47q0 332 426 332v-237q-33 0 -52 -2.5t-46 -12.5t-40 -36.5t-13 -69.5v-21h151v-258h-151 v-905h-275v905h-106z" />
</font>
</defs>
</svg>
